HIERARCHY
ROOT Root
{
  OFFSET 0.0 0.0 0.0
  CHANNELS 6 Xposition Yposition Zposition Zrotation Yrotation Xrotation
  JOINT Hips
  {
    OFFSET 0.0 100.0 0.0
    CHANNELS 6 Xposition Yposition Zposition Zrotation Yrotation Xrotation
    JOINT Spine1
    {
      OFFSET -0.013727 5.003763 -0.053727
      CHANNELS 3 Zrotation Yrotation Xrotation
      JOINT Spine2
      {
        OFFSET -0.0 7.125301 -0.029825
        CHANNELS 3 Zrotation Yrotation Xrotation
        JOINT Chest
        {
          OFFSET -1e-06 7.550063 -0.815971
          CHANNELS 3 Zrotation Yrotation Xrotation
          JOINT Neck1
          {
            OFFSET -0.181677 26.311295 -0.553348
            CHANNELS 3 Zrotation Yrotation Xrotation
            JOINT Neck2
            {
              OFFSET -3e-06 7.709397 2.302585
              CHANNELS 3 Zrotation Yrotation Xrotation
              JOINT Head
              {
                OFFSET -5e-06 6.128916 1.953709
                CHANNELS 3 Zrotation Yrotation Xrotation
                JOINT HeadEnd
                {
                  OFFSET 0.003598 16.065403 -1.835379
                  CHANNELS 3 Zrotation Yrotation Xrotation
                }
                JOINT Jaw
                {
                  OFFSET 0.002637 0.475592 3.094941
                  CHANNELS 3 Zrotation Yrotation Xrotation
                }
                JOINT LeftEye
                {
                  OFFSET 3.206381 5.380205 7.586883
                  CHANNELS 3 Zrotation Yrotation Xrotation
                }
                JOINT RightEye
                {
                  OFFSET -3.22244 5.361869 7.558234
                  CHANNELS 3 Zrotation Yrotation Xrotation
                }
              }
            }
          }
          JOINT LeftShoulder
          {
            OFFSET 1.621652 23.237164 5.113413
            CHANNELS 3 Zrotation Yrotation Xrotation
            JOINT LeftArm
            {
              OFFSET 14.919846 2e-06 -5.502326
              CHANNELS 3 Zrotation Yrotation Xrotation
              JOINT LeftForeArm
              {
                OFFSET 28.739307 0.0 -0.002588
                CHANNELS 3 Zrotation Yrotation Xrotation
                JOINT LeftHand
                {
                  OFFSET 27.093981 -1e-06 0.002609
                  CHANNELS 3 Zrotation Yrotation Xrotation
                  JOINT LeftHandThumb1
                  {
                    OFFSET 2.276482 -1.392045 3.191413
                    CHANNELS 3 Zrotation Yrotation Xrotation
                    JOINT LeftHandThumb2
                    {
                      OFFSET 4.012836 -1.828127 1.641654
                      CHANNELS 3 Zrotation Yrotation Xrotation
                      JOINT LeftHandThumb3
                      {
                        OFFSET 2.798515 0.0 -3e-06
                        CHANNELS 3 Zrotation Yrotation Xrotation
                        JOINT LeftHandThumbEnd
                        {
                          OFFSET 3.180793 -4e-06 4e-06
                          CHANNELS 3 Zrotation Yrotation Xrotation
                        }
                      }
                    }
                  }
                  JOINT LeftHandIndex1
                  {
                    OFFSET 3.247555 -0.531998 2.296169
                    CHANNELS 3 Zrotation Yrotation Xrotation
                    JOINT LeftHandIndex2
                    {
                      OFFSET 6.364578 0.01206 0.1786
                      CHANNELS 3 Zrotation Yrotation Xrotation
                      JOINT LeftHandIndex3
                      {
                        OFFSET 3.662364 0.0 0.0
                        CHANNELS 3 Zrotation Yrotation Xrotation
                        JOINT LeftHandIndex4
                        {
                          OFFSET 2.329242 4e-06 4e-06
                          CHANNELS 3 Zrotation Yrotation Xrotation
                          JOINT LeftHandIndexEnd
                          {
                            OFFSET 2.759615 -0.180537 -0.113024
                            CHANNELS 3 Zrotation Yrotation Xrotation
                          }
                        }
                      }
                    }
                  }
                  JOINT LeftHandMiddle1
                  {
                    OFFSET 3.163495 0.240981 1.000332
                    CHANNELS 3 Zrotation Yrotation Xrotation
                    JOINT LeftHandMiddle2
                    {
                      OFFSET 6.19078 -0.259278 -1.002548
                      CHANNELS 3 Zrotation Yrotation Xrotation
                      JOINT LeftHandMiddle3
                      {
                        OFFSET 4.35652 -4e-06 -1e-06
                        CHANNELS 3 Zrotation Yrotation Xrotation
                        JOINT LeftHandMiddle4
                        {
                          OFFSET 2.996877 -8e-06 0.0
                          CHANNELS 3 Zrotation Yrotation Xrotation
                          JOINT LeftHandMiddleEnd
                          {
                            OFFSET 2.304287 -0.294569 -0.031741
                            CHANNELS 3 Zrotation Yrotation Xrotation
                          }
                        }
                      }
                    }
                  }
                  JOINT LeftHandRing1
                  {
                    OFFSET 2.882643 -0.053652 -0.322543
                    CHANNELS 3 Zrotation Yrotation Xrotation
                    JOINT LeftHandRing2
                    {
                      OFFSET 5.854541 -0.486202 -1.373841
                      CHANNELS 3 Zrotation Yrotation Xrotation
                      JOINT LeftHandRing3
                      {
                        OFFSET 4.350578 0.0 3e-06
                        CHANNELS 3 Zrotation Yrotation Xrotation
                        JOINT LeftHandRing4
                        {
                          OFFSET 2.651321 7e-06 2e-06
                          CHANNELS 3 Zrotation Yrotation Xrotation
                          JOINT LeftHandRingEnd
                          {
                            OFFSET 1.936105 0.077687 -7.1e-05
                            CHANNELS 3 Zrotation Yrotation Xrotation
                          }
                        }
                      }
                    }
                  }
                  JOINT LeftHandPinky1
                  {
                    OFFSET 2.8655 -0.310005 -1.600378
                    CHANNELS 3 Zrotation Yrotation Xrotation
                    JOINT LeftHandPinky2
                    {
                      OFFSET 5.087849 -1.331141 -1.77123
                      CHANNELS 3 Zrotation Yrotation Xrotation
                      JOINT LeftHandPinky3
                      {
                        OFFSET 3.070974 4e-06 0.0
                        CHANNELS 3 Zrotation Yrotation Xrotation
                        JOINT LeftHandPinky4
                        {
                          OFFSET 1.549672 0.0 1e-06
                          CHANNELS 3 Zrotation Yrotation Xrotation
                          JOINT LeftHandPinkyEnd
                          {
                            OFFSET 1.944893 -0.157802 0.057219
                            CHANNELS 3 Zrotation Yrotation Xrotation
                          }
                        }
                      }
                    }
                  }
                }
              }
            }
          }
          JOINT RightShoulder
          {
            OFFSET -1.380118 23.180309 5.214158
            CHANNELS 3 Zrotation Yrotation Xrotation
            JOINT RightArm
            {
              OFFSET -15.037196 1.2e-05 -5.545604
              CHANNELS 3 Zrotation Yrotation Xrotation
              JOINT RightForeArm
              {
                OFFSET -28.736639 2e-06 -0.002597
                CHANNELS 3 Zrotation Yrotation Xrotation
                JOINT RightHand
                {
                  OFFSET -27.133619 -0.0 0.002613
                  CHANNELS 3 Zrotation Yrotation Xrotation
                  JOINT RightHandThumb1
                  {
                    OFFSET -2.274032 -1.383988 3.163127
                    CHANNELS 3 Zrotation Yrotation Xrotation
                    JOINT RightHandThumb2
                    {
                      OFFSET -4.011429 -1.827466 1.640914
                      CHANNELS 3 Zrotation Yrotation Xrotation
                      JOINT RightHandThumb3
                      {
                        OFFSET -2.794935 -4e-06 -3e-06
                        CHANNELS 3 Zrotation Yrotation Xrotation
                        JOINT RightHandThumbEnd
                        {
                          OFFSET -3.183852 4e-06 1e-06
                          CHANNELS 3 Zrotation Yrotation Xrotation
                        }
                      }
                    }
                  }
                  JOINT RightHandIndex1
                  {
                    OFFSET -3.253266 -0.520057 2.282866
                    CHANNELS 3 Zrotation Yrotation Xrotation
                    JOINT RightHandIndex2
                    {
                      OFFSET -6.341917 0.012471 0.178266
                      CHANNELS 3 Zrotation Yrotation Xrotation
                      JOINT RightHandIndex3
                      {
                        OFFSET -3.654871 -8e-06 -0.0
                        CHANNELS 3 Zrotation Yrotation Xrotation
                        JOINT RightHandIndex4
                        {
                          OFFSET -2.327586 0.0 1e-06
                          CHANNELS 3 Zrotation Yrotation Xrotation
                          JOINT RightHandIndexEnd
                          {
                            OFFSET -2.76179 -0.180656 -0.113078
                            CHANNELS 3 Zrotation Yrotation Xrotation
                          }
                        }
                      }
                    }
                  }
                  JOINT RightHandMiddle1
                  {
                    OFFSET -3.168106 0.246593 1.00103
                    CHANNELS 3 Zrotation Yrotation Xrotation
                    JOINT RightHandMiddle2
                    {
                      OFFSET -6.180828 -0.258836 -1.000895
                      CHANNELS 3 Zrotation Yrotation Xrotation
                      JOINT RightHandMiddle3
                      {
                        OFFSET -4.348901 0.0 -0.0
                        CHANNELS 3 Zrotation Yrotation Xrotation
                        JOINT RightHandMiddle4
                        {
                          OFFSET -3.00024 -4e-06 -2e-06
                          CHANNELS 3 Zrotation Yrotation Xrotation
                          JOINT RightHandMiddleEnd
                          {
                            OFFSET -2.30252 -0.29437 -0.031706
                            CHANNELS 3 Zrotation Yrotation Xrotation
                          }
                        }
                      }
                    }
                  }
                  JOINT RightHandRing1
                  {
                    OFFSET -2.88569 -0.067952 -0.308858
                    CHANNELS 3 Zrotation Yrotation Xrotation
                    JOINT RightHandRing2
                    {
                      OFFSET -5.854198 -0.48613 -1.373731
                      CHANNELS 3 Zrotation Yrotation Xrotation
                      JOINT RightHandRing3
                      {
                        OFFSET -4.33881 -4e-06 -0.0
                        CHANNELS 3 Zrotation Yrotation Xrotation
                        JOINT RightHandRing4
                        {
                          OFFSET -2.654903 -4e-06 4e-06
                          CHANNELS 3 Zrotation Yrotation Xrotation
                          JOINT RightHandRingEnd
                          {
                            OFFSET -1.933568 0.077527 -5.2e-05
                            CHANNELS 3 Zrotation Yrotation Xrotation
                          }
                        }
                      }
                    }
                  }
                  JOINT RightHandPinky1
                  {
                    OFFSET -2.866425 -0.342796 -1.584145
                    CHANNELS 3 Zrotation Yrotation Xrotation
                    JOINT RightHandPinky2
                    {
                      OFFSET -5.091371 -1.332055 -1.772385
                      CHANNELS 3 Zrotation Yrotation Xrotation
                      JOINT RightHandPinky3
                      {
                        OFFSET -3.062664 -4e-06 1e-06
                        CHANNELS 3 Zrotation Yrotation Xrotation
                        JOINT RightHandPinky4
                        {
                          OFFSET -1.546529 4e-06 -2e-06
                          CHANNELS 3 Zrotation Yrotation Xrotation
                          JOINT RightHandPinkyEnd
                          {
                            OFFSET -1.945119 -0.157718 0.057211
                            CHANNELS 3 Zrotation Yrotation Xrotation
                          }
                        }
                      }
                    }
                  }
                }
              }
            }
          }
        }
      }
    }
    JOINT LeftLeg
    {
      OFFSET 10.043214 -8.434526 2.595655
      CHANNELS 3 Zrotation Yrotation Xrotation
      JOINT LeftShin
      {
        OFFSET -1e-06 -43.221752 -0.802913
        CHANNELS 3 Zrotation Yrotation Xrotation
        JOINT LeftFoot
        {
          OFFSET 1e-06 -42.155094 -3.481523
          CHANNELS 3 Zrotation Yrotation Xrotation
          JOINT LeftToeBase
          {
            OFFSET 0.0 -5.059472 13.231529
            CHANNELS 3 Zrotation Yrotation Xrotation
            JOINT LeftToeEnd
            {
              OFFSET -0.009607 -1.647619 6.513017
              CHANNELS 3 Zrotation Yrotation Xrotation
            }
          }
        }
      }
    }
    JOINT RightLeg
    {
      OFFSET -10.047278 -8.29526 2.620317
      CHANNELS 3 Zrotation Yrotation Xrotation
      JOINT RightShin
      {
        OFFSET 1e-06 -43.362206 -0.805556
        CHANNELS 3 Zrotation Yrotation Xrotation
        JOINT RightFoot
        {
          OFFSET 2e-06 -42.117393 -3.478398
          CHANNELS 3 Zrotation Yrotation Xrotation
          JOINT RightToeBase
          {
            OFFSET -0.0 -5.079609 13.284196
            CHANNELS 3 Zrotation Yrotation Xrotation
            JOINT RightToeEnd
            {
              OFFSET 0.009532 -1.634378 6.460591
              CHANNELS 3 Zrotation Yrotation Xrotation
            }
          }
        }
      }
    }
  }
}
MOTION
Frames: 4
Frame Time: 0.03333333333333333
0.0 0.0 0.0 0.0 -0.0 0.0 -5.230497 48.669086 57.9104 -2.89663 0.526414 2.638238 1.382803 -0.309816 -0.549532 -0.047191 0.4888 -4.726065 0.553952 -2.239199 8.147647 -0.528942 2.570057 0.758839 -0.663702 -0.189218 -3.703308 0.600793 -1.014371 -7.212071 7.7e-05 -2.2e-05 6e-06 -0.008891 -0.090017 -0.058432 0.705759 -3.782717 -10.672481 -0.731676 3.610009 -10.690955 -22.120924 -4.364038 15.205215 -52.29332 -11.00536 6.59615 -0.108746 -22.261578 0.002792 13.29357 -4.579177 9.726253 -5.88211 9.86129 0.702589 -10.936881 -0.360578 7.15621 3e-06 8.774831 -1e-06 -15.758181 17.874828 6.153296 -1.844034 2.498506 -2.50728 -10.16361 4.678946 4.62111 -20.976049 -1.1e-05 0.0 -21.226307 2.451691 -3.594001 -0.0 -6e-06 -2e-06 -1.362682 2.240799 -0.746324 -21.334934 0.584904 3.008321 -13.821227 -7e-06 1e-06 -23.887192 -0.249087 -0.839482 -60.343487 2.199198 -1.027385 -0.294025 1.679688 0.833255 -14.218223 0.093211 1.300578 -34.212082 -0.287576 0.96717 -20.033232 0.96453 1.212847 0.0 1e-06 -1e-06 -3.440391 0.788233 0.501656 -15.928203 -3.167315 2.999705 -6.338832 -3e-06 -1e-06 -18.123463 3.64818 -4.905674 -4e-06 0.0 -1e-06 17.97678 10.081505 14.921556 54.882912 10.69321 20.495174 0.797061 25.9492 0.402566 -5.965465 3.602301 8.94673 2.243544 -5.255042 -3.180161 14.282905 -0.826594 6.952508 -6e-06 -12.69062 2e-06 16.513069 -17.470068 2.197744 1.665668 -1.955922 -2.8783 4.727803 -4.170592 4.993929 11.020538 6e-06 -1e-06 12.109062 -3.735717 -2.866786 0.0 0.0 1e-06 1.291987 -1.928552 -1.498088 14.800144 0.567472 3.865612 14.242585 -1.341734 -6.660664 19.631987 0.143932 -0.648245 50.154198 -0.469121 -6.544628 0.353029 -1.511153 -0.03194 20.222813 3.68432 2.316631 18.787291 9e-06 1e-06 10.751639 -0.479867 1.397907 1e-06 0.0 -0.0 3.27381 0.305949 -0.580112 21.486834 11.830395 2.266132 8.162935 3e-06 1e-06 18.399099 -3.798986 -4.940579 2e-06 -1e-06 -2e-06 21.933117 -4.152903 -9.112831 -0.29585 -0.990716 121.891052 5.858084 -17.68688 -46.634766 2.207439 -1.239729 -34.761616 0.0 -0.0 3e-06 -14.672642 -9.660474 -0.536391 0.737162 0.899054 114.115524 -2.674207 15.520967 -39.380325 -1.622944 0.705263 -26.379705 0.0 -0.0 -1e-06 
0.0 0.0 0.0 0.0 -0.0 0.0 -5.22478 48.67281 57.944321 -2.912517 0.545365 2.657385 1.385145 -0.306869 -0.544192 -0.049273 0.484143 -4.726641 0.552287 -2.251025 8.138126 -0.535213 2.571632 0.630528 -0.695462 -0.228446 -3.715691 0.588529 -1.028961 -7.262991 7.7e-05 -2.2e-05 6e-06 -0.0093 -0.097447 -0.060011 0.704081 -3.792946 -10.682393 -0.730709 3.605178 -10.698719 -22.047546 -4.39361 15.238972 -52.348171 -10.94949 6.666659 -0.083377 -22.242887 -0.00346 13.244311 -4.507554 9.741532 -5.882109 9.861291 0.70259 -10.936879 -0.360576 7.15621 1e-06 8.77483 0.0 -15.774975 17.865358 6.149422 -1.844034 2.498506 -2.50728 -10.163606 4.678947 4.621111 -20.97604 -5e-06 3e-06 -21.226301 2.451697 -3.594001 1e-06 -6e-06 -1e-06 -1.362682 2.240799 -0.746324 -21.334929 0.58491 3.008326 -13.821223 -3e-06 3e-06 -23.887188 -0.24908 -0.839482 -60.368771 2.17379 -1.009093 -0.294025 1.679688 0.833257 -14.218219 0.093215 1.30058 -34.212074 -0.287566 0.96717 -20.03323 0.964534 1.212845 1e-06 1e-06 -0.0 -3.440391 0.788234 0.501655 -15.9282 -3.167312 2.999708 -6.33883 -2e-06 -0.0 -18.123461 3.648184 -4.905674 -5e-06 -0.0 -2e-06 17.975761 10.102922 14.944562 54.911316 10.751986 20.488146 0.769503 25.811796 0.39961 -5.963489 3.637528 8.881345 2.243544 -5.255041 -3.18016 14.282907 -0.826594 6.952507 -5e-06 -12.690618 1e-06 16.538633 -17.477383 2.200829 1.665669 -1.955923 -2.8783 4.727804 -4.170592 4.993927 11.02054 6e-06 -3e-06 12.109066 -3.735717 -2.866785 0.0 0.0 0.0 1.291987 -1.928551 -1.498092 14.800148 0.56747 3.865609 14.24259 -1.341734 -6.660664 19.631994 0.14393 -0.648246 50.170204 -0.479727 -6.552564 0.353029 -1.511151 -0.03194 20.222818 3.684315 2.316626 18.787298 9e-06 -3e-06 10.751641 -0.479865 1.397905 0.0 -1e-06 1e-06 3.273811 0.305948 -0.580111 21.486843 11.83039 2.266132 8.162937 4e-06 -1e-06 18.399105 -3.798984 -4.940583 3e-06 0.0 -2e-06 21.968571 -4.156797 -9.090674 -0.291151 -0.98394 121.866241 5.827258 -17.727125 -46.650021 2.206089 -1.238799 -34.649822 0.0 -0.0 2e-06 -14.668043 -9.695105 -0.503788 0.743732 0.914717 114.071899 -2.719116 15.532644 -39.413456 -1.623523 0.704484 -26.284565 0.0 -0.0 -2e-06 
0.0 0.0 0.0 0.0 -0.0 0.0 -5.233263 48.691135 57.966949 -2.922665 0.554653 2.67347 1.382304 -0.305409 -0.538118 -0.049194 0.46131 -4.726664 0.555761 -2.248798 8.132606 -0.549179 2.556662 0.525126 -0.72559 -0.271234 -3.723905 0.585146 -1.038518 -7.314807 7.7e-05 -2.2e-05 6e-06 -0.00946 -0.098565 -0.060674 0.700126 -3.796241 -10.689988 -0.726981 3.606079 -10.705499 -21.984947 -4.424959 15.277061 -52.410477 -10.870224 6.757789 -0.054393 -22.237726 -0.002722 13.12895 -4.386034 9.735102 -5.882114 9.861297 0.702591 -10.936885 -0.360573 7.156212 0.0 8.774835 2e-06 -15.776784 17.861732 6.156113 -1.844035 2.498507 -2.507279 -10.163613 4.678952 4.621113 -20.976051 -2e-06 2e-06 -21.226315 2.451701 -3.594004 -0.0 -6e-06 0.0 -1.362684 2.240801 -0.746324 -21.334938 0.584913 3.008328 -13.82123 -1e-06 1e-06 -23.887201 -0.249077 -0.839486 -60.409321 2.156457 -0.991409 -0.294025 1.67969 0.833255 -14.218226 0.093216 1.30058 -34.212093 -0.287562 0.967168 -20.033236 0.964538 1.212845 -1e-06 1e-06 -1e-06 -3.440393 0.788234 0.501656 -15.928205 -3.167311 2.999709 -6.338833 -1e-06 1e-06 -18.123466 3.648188 -4.905676 -5e-06 0.0 -2e-06 17.98156 10.121641 14.975178 54.965504 10.802347 20.449213 0.748191 25.675909 0.396022 -5.928681 3.674937 8.844416 2.243545 -5.255042 -3.180159 14.282907 -0.826597 6.952509 -2e-06 -12.690618 1e-06 16.554144 -17.486195 2.202636 1.665668 -1.955923 -2.8783 4.727806 -4.170592 4.99393 11.020541 2e-06 -2e-06 12.109067 -3.735719 -2.866789 0.0 0.0 1e-06 1.291987 -1.928551 -1.49809 14.800146 0.567467 3.865611 14.24259 -1.341739 -6.660665 19.631992 0.143926 -0.648247 50.179192 -0.492102 -6.564568 0.353029 -1.511153 -0.031939 20.222816 3.684311 2.316633 18.787298 4e-06 -1e-06 10.751643 -0.479869 1.397907 0.0 0.0 -0.0 3.27381 0.305947 -0.580111 21.486843 11.830388 2.266135 8.162938 1e-06 -1e-06 18.399109 -3.79899 -4.940583 2e-06 -0.0 -1e-06 21.984322 -4.171226 -9.081944 -0.289541 -0.985702 121.841644 5.76512 -17.768385 -46.656857 2.206932 -1.237184 -34.573383 0.0 -0.0 3e-06 -14.665114 -9.740672 -0.488103 0.748517 0.928026 114.038956 -2.758594 15.549001 -39.44294 -1.618254 0.706415 -26.131842 0.0 0.0 -1e-06 
0.0 0.0 0.0 0.0 -0.0 0.0 -5.258293 48.711956 57.997871 -2.934709 0.555856 2.68328 1.38269 -0.307523 -0.529418 -0.049769 0.435914 -4.727812 0.561914 -2.249193 8.138238 -0.571801 2.530355 0.449423 -0.741509 -0.285036 -3.72225 0.588966 -1.036327 -7.353858 7.7e-05 -2.2e-05 6e-06 -0.00971 -0.096735 -0.059727 0.6949 -3.795352 -10.69353 -0.722305 3.608541 -10.710401 -21.927454 -4.44381 15.327028 -52.474743 -10.79574 6.8316 -0.027846 -22.260838 -0.001967 12.943526 -4.270403 9.758313 -5.882105 9.861281 0.702592 -10.936869 -0.360574 7.156204 1e-06 8.774822 -0.0 -15.744428 17.863672 6.171793 -1.844033 2.498504 -2.507278 -10.163599 4.678944 4.621109 -20.976021 -3e-06 2e-06 -21.226282 2.451696 -3.593999 1e-06 -6e-06 -1e-06 -1.362681 2.240797 -0.746323 -21.334911 0.584911 3.008324 -13.82121 -3e-06 2e-06 -23.887167 -0.249079 -0.839482 -60.453869 2.163884 -0.993636 -0.294025 1.679688 0.833254 -14.218207 0.093216 1.30058 -34.212044 -0.287562 0.967171 -20.033211 0.964537 1.212843 -1e-06 2e-06 -0.0 -3.440388 0.788234 0.501656 -15.928183 -3.167308 2.999708 -6.338825 0.0 1e-06 -18.123444 3.648183 -4.905669 -4e-06 -0.0 -1e-06 17.981922 10.135346 15.000851 55.041607 10.839559 20.371056 0.760371 25.558928 0.396474 -5.88128 3.709174 8.839856 2.243541 -5.255035 -3.180157 14.282887 -0.826592 6.952504 -4e-06 -12.690601 0.0 16.562454 -17.490707 2.199908 1.665665 -1.955921 -2.878299 4.727797 -4.170586 4.993923 11.020521 4e-06 0.0 12.109046 -3.735713 -2.866783 0.0 0.0 1e-06 1.291985 -1.928549 -1.498089 14.800123 0.56747 3.865607 14.242566 -1.341734 -6.660656 19.631962 0.143929 -0.648243 50.172127 -0.498359 -6.589725 0.353029 -1.51115 -0.03194 20.222786 3.684311 2.316629 18.78727 7e-06 3e-06 10.751625 -0.479867 1.397907 0.0 -0.0 1e-06 3.273805 0.305948 -0.58011 21.486809 11.830376 2.266135 8.162924 2e-06 1e-06 18.399075 -3.798984 -4.940571 2e-06 -0.0 -2e-06 21.993473 -4.199796 -9.051671 -0.295188 -0.994301 121.79644 5.686158 -17.801781 -46.663326 2.207592 -1.235665 -34.556702 -0.0 -0.0 2e-06 -14.663626 -9.792983 -0.452494 0.752701 0.933036 113.995384 -2.784239 15.571469 -39.469269 -1.606554 0.7098 -26.005482 0.0 -0.0 -1e-06 
